<mxfile host="app.diagrams.net" agent="Mozilla/5.0 (Windows NT 10.0; Win64; x64) AppleWebKit/537.36 (KHTML, like Gecko) Chrome/128.0.0.0 Safari/537.36" version="24.7.8">
  <diagram id="C5RBs43oDa-KdzZeNtuy" name="Page-1">
    <mxGraphModel dx="2022" dy="650" grid="1" gridSize="10" guides="1" tooltips="1" connect="1" arrows="1" fold="1" page="1" pageScale="1" pageWidth="827" pageHeight="1169" math="0" shadow="0">
      <root>
        <mxCell id="WIyWlLk6GJQsqaUBKTNV-0" />
        <mxCell id="WIyWlLk6GJQsqaUBKTNV-1" parent="WIyWlLk6GJQsqaUBKTNV-0" />
        <mxCell id="hLnK8mnX8FE_kz83yhg1-8" value="" style="edgeStyle=orthogonalEdgeStyle;rounded=0;orthogonalLoop=1;jettySize=auto;html=1;" edge="1" parent="WIyWlLk6GJQsqaUBKTNV-1" source="hLnK8mnX8FE_kz83yhg1-1" target="hLnK8mnX8FE_kz83yhg1-7">
          <mxGeometry relative="1" as="geometry" />
        </mxCell>
        <mxCell id="hLnK8mnX8FE_kz83yhg1-1" value="&lt;font style=&quot;font-size: 10px;&quot;&gt;in: Commutation date, Start date, End date, Entity,&amp;nbsp;&lt;/font&gt;&lt;div&gt;&lt;font style=&quot;font-size: 10px;&quot;&gt;investor id, retro ids&lt;/font&gt;&lt;/div&gt;" style="shape=parallelogram;perimeter=parallelogramPerimeter;whiteSpace=wrap;html=1;fixedSize=1;" vertex="1" parent="WIyWlLk6GJQsqaUBKTNV-1">
          <mxGeometry x="227.5" y="190" width="310" height="60" as="geometry" />
        </mxCell>
        <mxCell id="hLnK8mnX8FE_kz83yhg1-17" value="" style="edgeStyle=orthogonalEdgeStyle;rounded=0;orthogonalLoop=1;jettySize=auto;html=1;" edge="1" parent="WIyWlLk6GJQsqaUBKTNV-1" source="hLnK8mnX8FE_kz83yhg1-2" target="hLnK8mnX8FE_kz83yhg1-1">
          <mxGeometry relative="1" as="geometry" />
        </mxCell>
        <mxCell id="hLnK8mnX8FE_kz83yhg1-2" value="&lt;font style=&quot;font-size: 10px;&quot;&gt;Start&lt;/font&gt;" style="ellipse;whiteSpace=wrap;html=1;" vertex="1" parent="WIyWlLk6GJQsqaUBKTNV-1">
          <mxGeometry x="322.5" y="80" width="120" height="60" as="geometry" />
        </mxCell>
        <mxCell id="hLnK8mnX8FE_kz83yhg1-10" value="" style="edgeStyle=orthogonalEdgeStyle;rounded=0;orthogonalLoop=1;jettySize=auto;html=1;" edge="1" parent="WIyWlLk6GJQsqaUBKTNV-1" source="hLnK8mnX8FE_kz83yhg1-7" target="hLnK8mnX8FE_kz83yhg1-9">
          <mxGeometry relative="1" as="geometry" />
        </mxCell>
        <mxCell id="hLnK8mnX8FE_kz83yhg1-7" value="&lt;font style=&quot;font-size: 10px;&quot;&gt;in: Capital Schedule&lt;/font&gt;" style="shape=parallelogram;perimeter=parallelogramPerimeter;whiteSpace=wrap;html=1;fixedSize=1;" vertex="1" parent="WIyWlLk6GJQsqaUBKTNV-1">
          <mxGeometry x="315" y="280" width="135" height="60" as="geometry" />
        </mxCell>
        <mxCell id="hLnK8mnX8FE_kz83yhg1-12" value="" style="edgeStyle=orthogonalEdgeStyle;rounded=0;orthogonalLoop=1;jettySize=auto;html=1;" edge="1" parent="WIyWlLk6GJQsqaUBKTNV-1" source="hLnK8mnX8FE_kz83yhg1-9" target="hLnK8mnX8FE_kz83yhg1-11">
          <mxGeometry relative="1" as="geometry" />
        </mxCell>
        <mxCell id="hLnK8mnX8FE_kz83yhg1-26" value="" style="edgeStyle=orthogonalEdgeStyle;rounded=0;orthogonalLoop=1;jettySize=auto;html=1;" edge="1" parent="WIyWlLk6GJQsqaUBKTNV-1" source="hLnK8mnX8FE_kz83yhg1-9" target="hLnK8mnX8FE_kz83yhg1-25">
          <mxGeometry relative="1" as="geometry" />
        </mxCell>
        <mxCell id="hLnK8mnX8FE_kz83yhg1-9" value="&lt;font style=&quot;font-size: 10px;&quot;&gt;Is capital schedule&lt;/font&gt;" style="rhombus;whiteSpace=wrap;html=1;" vertex="1" parent="WIyWlLk6GJQsqaUBKTNV-1">
          <mxGeometry x="307.5" y="380" width="150" height="100" as="geometry" />
        </mxCell>
        <mxCell id="hLnK8mnX8FE_kz83yhg1-11" value="&lt;font style=&quot;font-size: 10px;&quot;&gt;Get Actual Capital Schedule from the Economic model&lt;/font&gt;" style="whiteSpace=wrap;html=1;" vertex="1" parent="WIyWlLk6GJQsqaUBKTNV-1">
          <mxGeometry x="47.5" y="400" width="120" height="60" as="geometry" />
        </mxCell>
        <mxCell id="hLnK8mnX8FE_kz83yhg1-34" style="edgeStyle=orthogonalEdgeStyle;rounded=0;orthogonalLoop=1;jettySize=auto;html=1;exitX=0.5;exitY=1;exitDx=0;exitDy=0;" edge="1" parent="WIyWlLk6GJQsqaUBKTNV-1" source="hLnK8mnX8FE_kz83yhg1-11" target="hLnK8mnX8FE_kz83yhg1-25">
          <mxGeometry relative="1" as="geometry" />
        </mxCell>
        <mxCell id="hLnK8mnX8FE_kz83yhg1-13" value="&lt;font style=&quot;font-size: 10px;&quot;&gt;Yes&amp;nbsp;&lt;/font&gt;" style="text;html=1;align=center;verticalAlign=middle;resizable=0;points=[];autosize=1;strokeColor=none;fillColor=none;" vertex="1" parent="WIyWlLk6GJQsqaUBKTNV-1">
          <mxGeometry x="232.5" y="400" width="40" height="30" as="geometry" />
        </mxCell>
        <mxCell id="hLnK8mnX8FE_kz83yhg1-38" value="" style="edgeStyle=orthogonalEdgeStyle;rounded=0;orthogonalLoop=1;jettySize=auto;html=1;" edge="1" parent="WIyWlLk6GJQsqaUBKTNV-1" source="hLnK8mnX8FE_kz83yhg1-25" target="hLnK8mnX8FE_kz83yhg1-37">
          <mxGeometry relative="1" as="geometry" />
        </mxCell>
        <mxCell id="hLnK8mnX8FE_kz83yhg1-52" value="" style="edgeStyle=orthogonalEdgeStyle;rounded=0;orthogonalLoop=1;jettySize=auto;html=1;" edge="1" parent="WIyWlLk6GJQsqaUBKTNV-1" source="hLnK8mnX8FE_kz83yhg1-25" target="hLnK8mnX8FE_kz83yhg1-51">
          <mxGeometry relative="1" as="geometry" />
        </mxCell>
        <mxCell id="hLnK8mnX8FE_kz83yhg1-60" value="" style="edgeStyle=orthogonalEdgeStyle;rounded=0;orthogonalLoop=1;jettySize=auto;html=1;" edge="1" parent="WIyWlLk6GJQsqaUBKTNV-1" source="hLnK8mnX8FE_kz83yhg1-25" target="hLnK8mnX8FE_kz83yhg1-59">
          <mxGeometry relative="1" as="geometry" />
        </mxCell>
        <mxCell id="hLnK8mnX8FE_kz83yhg1-25" value="&lt;font style=&quot;font-size: 10px;&quot;&gt;Get IRR Premium Inputs for investor id and for every retro program id&amp;nbsp;&lt;/font&gt;" style="whiteSpace=wrap;html=1;" vertex="1" parent="WIyWlLk6GJQsqaUBKTNV-1">
          <mxGeometry x="322.5" y="555" width="120" height="60" as="geometry" />
        </mxCell>
        <mxCell id="hLnK8mnX8FE_kz83yhg1-27" value="&lt;font style=&quot;font-size: 10px;&quot;&gt;No&lt;/font&gt;" style="text;html=1;align=center;verticalAlign=middle;resizable=0;points=[];autosize=1;strokeColor=none;fillColor=none;" vertex="1" parent="WIyWlLk6GJQsqaUBKTNV-1">
          <mxGeometry x="380" y="488" width="40" height="30" as="geometry" />
        </mxCell>
        <mxCell id="hLnK8mnX8FE_kz83yhg1-40" value="" style="edgeStyle=orthogonalEdgeStyle;rounded=0;orthogonalLoop=1;jettySize=auto;html=1;" edge="1" parent="WIyWlLk6GJQsqaUBKTNV-1" source="hLnK8mnX8FE_kz83yhg1-37" target="hLnK8mnX8FE_kz83yhg1-39">
          <mxGeometry relative="1" as="geometry" />
        </mxCell>
        <mxCell id="hLnK8mnX8FE_kz83yhg1-37" value="&lt;font style=&quot;font-size: 10px;&quot;&gt;Get paid loss schedule&lt;/font&gt;" style="whiteSpace=wrap;html=1;" vertex="1" parent="WIyWlLk6GJQsqaUBKTNV-1">
          <mxGeometry x="70" y="555" width="120" height="60" as="geometry" />
        </mxCell>
        <mxCell id="hLnK8mnX8FE_kz83yhg1-68" style="edgeStyle=orthogonalEdgeStyle;rounded=0;orthogonalLoop=1;jettySize=auto;html=1;" edge="1" parent="WIyWlLk6GJQsqaUBKTNV-1" source="hLnK8mnX8FE_kz83yhg1-39" target="hLnK8mnX8FE_kz83yhg1-64">
          <mxGeometry relative="1" as="geometry" />
        </mxCell>
        <mxCell id="hLnK8mnX8FE_kz83yhg1-39" value="&lt;font style=&quot;font-size: 10px;&quot;&gt;Call payment service, coming up with the loss payment schedule&amp;nbsp;&lt;/font&gt;" style="whiteSpace=wrap;html=1;" vertex="1" parent="WIyWlLk6GJQsqaUBKTNV-1">
          <mxGeometry x="-80" y="790" width="220" height="65" as="geometry" />
        </mxCell>
        <mxCell id="hLnK8mnX8FE_kz83yhg1-65" value="" style="edgeStyle=orthogonalEdgeStyle;rounded=0;orthogonalLoop=1;jettySize=auto;html=1;" edge="1" parent="WIyWlLk6GJQsqaUBKTNV-1" source="hLnK8mnX8FE_kz83yhg1-51" target="hLnK8mnX8FE_kz83yhg1-64">
          <mxGeometry relative="1" as="geometry" />
        </mxCell>
        <mxCell id="hLnK8mnX8FE_kz83yhg1-51" value="&lt;font style=&quot;font-size: 10px;&quot;&gt;Get Yield and Table Shares per start and end dates specified&lt;/font&gt;" style="whiteSpace=wrap;html=1;" vertex="1" parent="WIyWlLk6GJQsqaUBKTNV-1">
          <mxGeometry x="320" y="710" width="140" height="60" as="geometry" />
        </mxCell>
        <mxCell id="hLnK8mnX8FE_kz83yhg1-62" value="" style="edgeStyle=orthogonalEdgeStyle;rounded=0;orthogonalLoop=1;jettySize=auto;html=1;" edge="1" parent="WIyWlLk6GJQsqaUBKTNV-1" source="hLnK8mnX8FE_kz83yhg1-59" target="hLnK8mnX8FE_kz83yhg1-61">
          <mxGeometry relative="1" as="geometry" />
        </mxCell>
        <mxCell id="hLnK8mnX8FE_kz83yhg1-59" value="&lt;font style=&quot;font-size: 10px;&quot;&gt;Call Premium service to return deposit premium per day for each layer&lt;/font&gt;" style="shape=process;whiteSpace=wrap;html=1;backgroundOutline=1;" vertex="1" parent="WIyWlLk6GJQsqaUBKTNV-1">
          <mxGeometry x="630" y="555" width="220" height="60" as="geometry" />
        </mxCell>
        <mxCell id="hLnK8mnX8FE_kz83yhg1-67" value="" style="edgeStyle=orthogonalEdgeStyle;rounded=0;orthogonalLoop=1;jettySize=auto;html=1;" edge="1" parent="WIyWlLk6GJQsqaUBKTNV-1" source="hLnK8mnX8FE_kz83yhg1-61" target="hLnK8mnX8FE_kz83yhg1-64">
          <mxGeometry relative="1" as="geometry">
            <mxPoint x="500" y="830" as="targetPoint" />
          </mxGeometry>
        </mxCell>
        <mxCell id="hLnK8mnX8FE_kz83yhg1-61" value="&lt;span style=&quot;font-size: 10px;&quot;&gt;Add deposit premium to reinstatement premium from the premium input to get the premium schedule&lt;/span&gt;" style="shape=process;whiteSpace=wrap;html=1;backgroundOutline=1;" vertex="1" parent="WIyWlLk6GJQsqaUBKTNV-1">
          <mxGeometry x="630" y="800" width="220" height="60" as="geometry" />
        </mxCell>
        <mxCell id="hLnK8mnX8FE_kz83yhg1-64" value="&lt;font style=&quot;font-size: 10px;&quot;&gt;Produce the cashflows and compute IRR for each retro id for the investor&lt;/font&gt;" style="shape=process;whiteSpace=wrap;html=1;backgroundOutline=1;" vertex="1" parent="WIyWlLk6GJQsqaUBKTNV-1">
          <mxGeometry x="300" y="850" width="180" height="60" as="geometry" />
        </mxCell>
      </root>
    </mxGraphModel>
  </diagram>
</mxfile>
